<svg width="52" height="48" viewBox="0 0 52 48" fill="none" xmlns="http://www.w3.org/2000/svg">
<path d="M18.4188 24.4516L41.55 1L51 10.4802L27.8709 33.936L15.5834 36.5455L18.4188 24.4516Z" fill="#C86DD7" stroke="black"/>
<path fill-rule="evenodd" clip-rule="evenodd" d="M15.5833 17.7272H19.2146L23.3354 13.5454H15.5833V17.7272ZM38.5 29.1227L42.6667 24.8928V34.4545H38.5V29.1227ZM28.0833 42.8181V47H15.5833V42.8181H28.0833ZM11.4167 42.8181H5.16667V38.6363H1V47H11.4167V42.8181ZM38.5 42.8181V38.6363H42.6667V47H32.25V42.8181H38.5ZM1 34.4545H5.16667V26.0909H1V34.4545ZM5.16667 17.7272V21.909H1V13.5454H11.4167V17.7272H5.16667Z" fill="#FFC300"/>
<path d="M19.2146 17.7272V18.2272H19.4238L19.5707 18.0782L19.2146 17.7272ZM15.5833 17.7272H15.0833V18.2272H15.5833V17.7272ZM23.3354 13.5454L23.6916 13.8964L24.5301 13.0454H23.3354V13.5454ZM15.5833 13.5454V13.0454H15.0833V13.5454H15.5833ZM42.6667 24.8928H43.1667V23.6727L42.3105 24.5419L42.6667 24.8928ZM38.5 29.1227L38.1438 28.7718L38 28.9178V29.1227H38.5ZM42.6667 34.4545V34.9545H43.1667V34.4545H42.6667ZM38.5 34.4545H38V34.9545H38.5V34.4545ZM28.0833 47V47.5H28.5833V47H28.0833ZM28.0833 42.8181H28.5833V42.3181H28.0833V42.8181ZM15.5833 47H15.0833V47.5H15.5833V47ZM15.5833 42.8181V42.3181H15.0833V42.8181H15.5833ZM5.16667 42.8181H4.66667V43.3181H5.16667V42.8181ZM11.4167 42.8181H11.9167V42.3181H11.4167V42.8181ZM5.16667 38.6363H5.66667V38.1363H5.16667V38.6363ZM1 38.6363V38.1363H0.5V38.6363H1ZM1 47H0.5V47.5H1V47ZM11.4167 47V47.5H11.9167V47H11.4167ZM38.5 38.6363V38.1363H38V38.6363H38.5ZM38.5 42.8181V43.3181H39V42.8181H38.5ZM42.6667 38.6363H43.1667V38.1363H42.6667V38.6363ZM42.6667 47V47.5H43.1667V47H42.6667ZM32.25 47H31.75V47.5H32.25V47ZM32.25 42.8181V42.3181H31.75V42.8181H32.25ZM5.16667 34.4545V34.9545H5.66667V34.4545H5.16667ZM1 34.4545H0.5V34.9545H1V34.4545ZM5.16667 26.0909H5.66667V25.5909H5.16667V26.0909ZM1 26.0909V25.5909H0.5V26.0909H1ZM5.16667 21.909V22.409H5.66667V21.909H5.16667ZM5.16667 17.7272V17.2272H4.66667V17.7272H5.16667ZM1 21.909H0.5V22.409H1V21.909ZM1 13.5454V13.0454H0.5V13.5454H1ZM11.4167 13.5454H11.9167V13.0454H11.4167V13.5454ZM11.4167 17.7272V18.2272H11.9167V17.7272H11.4167ZM19.2146 17.2272H15.5833V18.2272H19.2146V17.2272ZM22.9793 13.1945L18.8584 17.3763L19.5707 18.0782L23.6916 13.8964L22.9793 13.1945ZM15.5833 14.0454H23.3354V13.0454H15.5833V14.0454ZM16.0833 17.7272V13.5454H15.0833V17.7272H16.0833ZM42.3105 24.5419L38.1438 28.7718L38.8562 29.4736L43.0229 25.2437L42.3105 24.5419ZM43.1667 34.4545V24.8928H42.1667V34.4545H43.1667ZM38.5 34.9545H42.6667V33.9545H38.5V34.9545ZM38 29.1227V34.4545H39V29.1227H38ZM28.5833 47V42.8181H27.5833V47H28.5833ZM15.5833 47.5H28.0833V46.5H15.5833V47.5ZM15.0833 42.8181V47H16.0833V42.8181H15.0833ZM28.0833 42.3181H15.5833V43.3181H28.0833V42.3181ZM5.16667 43.3181H11.4167V42.3181H5.16667V43.3181ZM4.66667 38.6363V42.8181H5.66667V38.6363H4.66667ZM1 39.1363H5.16667V38.1363H1V39.1363ZM1.5 47V38.6363H0.5V47H1.5ZM11.4167 46.5H1V47.5H11.4167V46.5ZM10.9167 42.8181V47H11.9167V42.8181H10.9167ZM38 38.6363V42.8181H39V38.6363H38ZM42.6667 38.1363H38.5V39.1363H42.6667V38.1363ZM43.1667 47V38.6363H42.1667V47H43.1667ZM32.25 47.5H42.6667V46.5H32.25V47.5ZM31.75 42.8181V47H32.75V42.8181H31.75ZM38.5 42.3181H32.25V43.3181H38.5V42.3181ZM5.16667 33.9545H1V34.9545H5.16667V33.9545ZM4.66667 26.0909V34.4545H5.66667V26.0909H4.66667ZM1 26.5909H5.16667V25.5909H1V26.5909ZM1.5 34.4545V26.0909H0.5V34.4545H1.5ZM5.66667 21.909V17.7272H4.66667V21.909H5.66667ZM1 22.409H5.16667V21.409H1V22.409ZM0.5 13.5454V21.909H1.5V13.5454H0.5ZM11.4167 13.0454H1V14.0454H11.4167V13.0454ZM11.9167 17.7272V13.5454H10.9167V17.7272H11.9167ZM5.16667 18.2272H11.4167V17.2272H5.16667V18.2272Z" fill="black"/>
<path d="M21.1395 31.0924L25.7854 30.1055L45.1208 10.4969L41.5645 6.92773L22.2041 26.5572L21.1395 31.0924H21.1395Z" fill="white" stroke="black"/>
</svg>
