<svg width="45" height="50" viewBox="0 0 45 50" fill="none" xmlns="http://www.w3.org/2000/svg">
<path fill-rule="evenodd" clip-rule="evenodd" d="M0.75089 40.4219C3.02692 43.8399 8.749 42.4659 12.583 41.0559C21.9752 37.6039 34.2393 28.6659 40.4074 20.3919C44.7895 14.5139 44.3715 11.2679 43.2475 9.57794C42.5975 8.60194 41.2274 7.43994 38.3854 7.43994C33.2113 7.43994 26.2052 11.0339 21.7772 13.7599C17.4151 11.1879 10.641 7.86794 5.61295 7.86794C2.78292 7.86794 1.4129 8.99994 0.76489 9.95194C-0.159123 11.3039 -0.617129 13.6619 1.6029 17.5819C1.2889 18.1439 1.11089 18.7919 1.11089 19.4819C1.11089 21.6159 2.81092 23.3459 4.90494 23.3459C6.99897 23.3459 8.699 21.6159 8.699 19.4819C8.699 17.3479 7.00097 15.6179 4.90494 15.6179L4.48494 15.6419C3.31892 13.5239 3.33292 12.3419 3.59493 11.9579C3.84093 11.5939 4.59694 11.3799 5.61295 11.3799C7.20498 11.3799 9.283 11.8619 11.643 12.7299C13.9471 13.5799 16.3091 14.7199 18.4751 15.9119C13.9771 19.0079 10.527 21.9999 7.46498 25.1079C6.09896 26.5159 4.75494 28.0459 3.59093 29.6059C-0.791131 35.4859 -0.373125 38.7319 0.75089 40.4219ZM40.3914 11.5459C40.7634 12.1039 40.6714 14.2299 37.6594 18.2679C33.7853 23.4659 27.6052 28.5699 22.1872 32.1219C17.7731 35.0159 10.313 39.0499 5.61295 39.0499C4.59094 39.0499 3.85893 38.8319 3.60693 38.4539C2.86092 37.3319 4.44894 33.1599 10.085 27.4039C12.175 29.2659 14.4291 31.0459 16.7171 32.6679L16.7431 32.6859C17.9471 32.0219 19.0031 31.3879 20.0471 30.7259C17.3171 28.8779 14.7551 26.8819 12.605 24.9799C15.4651 22.3859 18.6491 19.9519 21.8112 17.8779C24.5652 19.6059 27.2212 21.5319 29.6113 23.4999C30.4853 22.7159 31.3393 21.9039 32.1533 21.0779C29.9993 19.2819 27.6392 17.5179 25.1092 15.8439C28.5333 13.8679 34.4793 10.9499 38.3854 10.9499C39.4074 10.9499 40.1394 11.1679 40.3914 11.5459Z" fill="#187ADF"/>
<path fill-rule="evenodd" clip-rule="evenodd" d="M18.5191 9.342C17.3591 8.77 16.3331 8.308 15.3571 7.904C16.8971 3.744 19.1211 1 21.9991 1C24.8032 1 26.9872 3.602 28.5192 7.584C27.5352 8.006 26.5232 8.478 25.3752 9.062C24.1992 5.928 22.8592 4.512 21.9991 4.512C21.1151 4.512 19.7191 6.012 18.5191 9.342ZM21.9991 45.488C21.1411 45.488 19.7991 44.072 18.6231 40.938C17.4631 41.528 16.4611 41.994 15.4791 42.416C17.0131 46.398 19.1951 49 21.9991 49C24.8772 49 27.1012 46.256 28.6412 42.096C27.6712 41.694 26.6472 41.234 25.4792 40.658C24.2792 43.988 22.8832 45.488 21.9991 45.488ZM42.8534 30.644C42.8534 31.296 42.6954 31.91 42.4134 32.45C44.6154 36.35 44.1574 38.702 43.2354 40.05C42.5874 41.002 41.2174 42.134 38.3874 42.134C34.0453 42.134 28.3812 39.618 24.5292 37.544C25.6932 36.802 26.8872 35.99 27.8472 35.306C30.7213 36.732 35.1833 38.622 38.3874 38.622C39.4034 38.622 40.1574 38.408 40.4054 38.046C40.6634 37.668 40.6814 36.52 39.5754 34.472L39.0594 34.508C36.9633 34.508 35.2653 32.778 35.2653 30.644C35.2653 28.51 36.9633 26.78 39.0594 26.78C41.1554 26.78 42.8534 28.51 42.8534 30.644Z" fill="#C86DD7"/>
<path d="M15.3571 7.904L14.8882 7.73041L14.721 8.18187L15.1658 8.36599L15.3571 7.904ZM18.5191 9.342L18.298 9.79045L18.7998 10.0379L18.9895 9.51151L18.5191 9.342ZM28.5192 7.584L28.7163 8.04353L29.1588 7.85378L28.9859 7.40446L28.5192 7.584ZM25.3752 9.062L24.9071 9.23766L25.1035 9.76118L25.6019 9.50765L25.3752 9.062ZM18.6231 40.938L19.0912 40.7623L18.8948 40.2389L18.3964 40.4923L18.6231 40.938ZM15.4791 42.416L15.2816 41.9566L14.8395 42.1466L15.0125 42.5957L15.4791 42.416ZM28.6412 42.096L29.1101 42.2696L29.2772 41.8183L28.8327 41.6341L28.6412 42.096ZM25.4792 40.658L25.7003 40.2096L25.1985 39.9621L25.0088 40.4885L25.4792 40.658ZM42.4134 32.45L41.9702 32.2185L41.8445 32.4593L41.978 32.6958L42.4134 32.45ZM43.2354 40.05L42.8227 39.7677L42.8221 39.7687L43.2354 40.05ZM24.5292 37.544L24.2604 37.1224L23.542 37.5803L24.2921 37.9842L24.5292 37.544ZM27.8472 35.306L28.0695 34.8581L27.8011 34.7249L27.5571 34.8988L27.8472 35.306ZM40.4054 38.046L40.8179 38.3286L40.8184 38.3279L40.4054 38.046ZM39.5754 34.472L40.0153 34.2344L39.8621 33.9508L39.5406 33.9732L39.5754 34.472ZM39.0594 34.508V35.008H39.0768L39.0942 35.0068L39.0594 34.508ZM15.1658 8.36599C16.1313 8.76564 17.1474 9.2231 18.298 9.79045L18.7402 8.89356C17.5708 8.3169 16.5348 7.85036 15.5483 7.44201L15.1658 8.36599ZM21.9991 0.5C20.3831 0.5 18.9827 1.27558 17.8082 2.55368C16.6395 3.82544 15.6704 5.61744 14.8882 7.73041L15.826 8.07759C16.5838 6.03056 17.4967 4.37056 18.5445 3.23032C19.5865 2.09642 20.7372 1.5 21.9991 1.5V0.5ZM28.9859 7.40446C28.207 5.37988 27.2487 3.66807 26.0991 2.45484C24.9434 1.23515 23.573 0.5 21.9991 0.5V1.5C23.2293 1.5 24.3529 2.06585 25.3732 3.14266C26.3997 4.22593 27.2995 5.80612 28.0526 7.76354L28.9859 7.40446ZM25.6019 9.50765C26.7407 8.92834 27.7428 8.46101 28.7163 8.04353L28.3222 7.12447C27.3276 7.55099 26.3057 8.02766 25.1485 8.61635L25.6019 9.50765ZM21.9991 5.012C22.079 5.012 22.2261 5.04694 22.4413 5.19455C22.6531 5.33987 22.9026 5.57544 23.1764 5.92182C23.7239 6.61439 24.3306 7.7014 24.9071 9.23766L25.8433 8.88634C25.2438 7.2886 24.5925 6.10061 23.9609 5.30168C23.6452 4.90231 23.3249 4.58801 23.0069 4.36989C22.6922 4.15406 22.3493 4.012 21.9991 4.012V5.012ZM18.9895 9.51151C19.5783 7.87761 20.2056 6.72092 20.7737 5.98337C21.0579 5.61442 21.3178 5.36284 21.5388 5.20739C21.7637 5.04922 21.9171 5.012 21.9991 5.012V4.012C21.6392 4.012 21.2865 4.16228 20.9636 4.38942C20.6367 4.61928 20.3068 4.95083 19.9815 5.37313C19.3306 6.21808 18.6599 7.47639 18.0487 9.17249L18.9895 9.51151ZM18.155 41.1137C18.7546 42.7115 19.4064 43.8995 20.0382 44.6984C20.354 45.0977 20.6743 45.412 20.9922 45.6301C21.3066 45.8458 21.6493 45.988 21.9991 45.988V44.988C21.92 44.988 21.7732 44.9532 21.5579 44.8055C21.3461 44.6601 21.0965 44.4245 20.8226 44.0781C20.2748 43.3855 19.6677 42.2985 19.0912 40.7623L18.155 41.1137ZM15.6765 42.8754C16.6685 42.4491 17.6803 41.9785 18.8498 41.3837L18.3964 40.4923C17.2459 41.0775 16.2536 41.5389 15.2816 41.9566L15.6765 42.8754ZM21.9991 48.5C20.769 48.5 19.6459 47.9342 18.6258 46.8574C17.5996 45.7741 16.6998 44.1938 15.9456 42.2363L15.0125 42.5957C15.7924 44.6202 16.7506 46.3319 17.8999 47.5451C19.0553 48.7648 20.4253 49.5 21.9991 49.5V48.5ZM28.1723 41.9224C27.4145 43.9694 26.5016 45.6294 25.4538 46.7697C24.4118 47.9036 23.2611 48.5 21.9991 48.5V49.5C23.6152 49.5 25.0156 48.7244 26.1901 47.4463C27.3588 46.1746 28.3279 44.3826 29.1101 42.2696L28.1723 41.9224ZM25.258 41.1064C26.4357 41.6872 27.4696 42.1517 28.4498 42.5579L28.8327 41.6341C27.8728 41.2363 26.8587 40.7808 25.7003 40.2096L25.258 41.1064ZM21.9991 45.988C22.3591 45.988 22.7117 45.8377 23.0347 45.6106C23.3616 45.3807 23.6915 45.0492 24.0168 44.6269C24.6676 43.7819 25.3384 42.5236 25.9496 40.8275L25.0088 40.4885C24.42 42.1224 23.7927 43.2791 23.2246 44.0166C22.9404 44.3856 22.6805 44.6372 22.4595 44.7926C22.2346 44.9508 22.0812 44.988 21.9991 44.988V45.988ZM42.8566 32.6815C43.1754 32.071 43.3534 31.3777 43.3534 30.644H42.3534C42.3534 31.2143 42.2154 31.749 41.9702 32.2185L42.8566 32.6815ZM43.6481 40.3323C44.7107 38.7788 45.1119 36.2124 42.8488 32.2042L41.978 32.6958C44.119 36.4876 43.6042 38.6252 42.8227 39.7677L43.6481 40.3323ZM38.3874 42.634C41.3758 42.634 42.9037 41.4259 43.6488 40.3314L42.8221 39.7687C42.2711 40.5781 41.059 41.634 38.3874 41.634V42.634ZM24.2921 37.9842C26.232 39.0287 28.6338 40.1876 31.1035 41.0866C33.5663 41.983 36.1314 42.634 38.3874 42.634V41.634C36.3013 41.634 33.8633 41.027 31.4455 40.1469C29.0347 39.2694 26.6784 38.1333 24.7662 37.1038L24.2921 37.9842ZM27.5571 34.8988C26.6034 35.5783 25.4166 36.3854 24.2604 37.1224L24.7979 37.9656C25.9698 37.2186 27.171 36.4018 28.1374 35.7132L27.5571 34.8988ZM38.3874 38.122C36.8689 38.122 35.015 37.671 33.1575 37.0264C31.3086 36.3848 29.4949 35.5654 28.0695 34.8581L27.625 35.7539C29.0736 36.4726 30.9279 37.3112 32.8296 37.9711C34.7227 38.628 36.7018 39.122 38.3874 39.122V38.122ZM39.9929 37.7634C39.9678 37.8001 39.8549 37.9012 39.5473 37.9889C39.258 38.0713 38.8643 38.122 38.3874 38.122V39.122C38.9265 39.122 39.4177 39.0657 39.8214 38.9506C40.2069 38.8408 40.595 38.6539 40.8179 38.3286L39.9929 37.7634ZM39.1354 34.7096C39.6711 35.7014 39.9194 36.4482 40.0091 36.97C40.0539 37.2306 40.0576 37.426 40.0429 37.5627C40.0356 37.6307 40.0242 37.6805 40.0132 37.7148C40.0077 37.7317 40.0027 37.744 39.9987 37.7523C39.9948 37.7606 39.9924 37.7642 39.9924 37.7641L40.8184 38.3279C41.0582 37.9764 41.1034 37.4326 40.9947 36.8005C40.8814 36.1418 40.5857 35.2906 40.0153 34.2344L39.1354 34.7096ZM39.0942 35.0068L39.6102 34.9708L39.5406 33.9732L39.0246 34.0092L39.0942 35.0068ZM34.7653 30.644C34.7653 33.0454 36.6786 35.008 39.0594 35.008V34.008C37.2481 34.008 35.7653 32.5106 35.7653 30.644H34.7653ZM39.0594 26.28C36.6786 26.28 34.7653 28.2426 34.7653 30.644H35.7653C35.7653 28.7774 37.2481 27.28 39.0594 27.28V26.28ZM43.3534 30.644C43.3534 28.2426 41.4402 26.28 39.0594 26.28V27.28C40.8706 27.28 42.3534 28.7774 42.3534 30.644H43.3534Z" fill="#C86DD7"/>
</svg>
